<?xml version="1.0" standalone="no"?>
<!DOCTYPE svg PUBLIC "-//W3C//DTD SVG 20010904//EN"
 "http://www.w3.org/TR/2001/REC-SVG-20010904/DTD/svg10.dtd">
<svg version="1.0" xmlns="http://www.w3.org/2000/svg"
 width="688.000000pt" height="688.000000pt" viewBox="0 0 688.000000 688.000000"
 preserveAspectRatio="xMidYMid meet">
<metadata>
Created by potrace 1.14, written by Peter Selinger 2001-2017
</metadata>
<g transform="translate(0.000000,688.000000) scale(0.100000,-0.100000)"
fill="#000000" stroke="none">
<path d="M4714 6809 c16 -53 44 -176 50 -214 3 -22 8 -51 11 -65 11 -51 17
-86 21 -120 2 -19 6 -48 8 -65 26 -178 27 -626 2 -815 -2 -14 -7 -49 -11 -79
-4 -30 -9 -63 -11 -75 -3 -12 -6 -34 -8 -51 -3 -16 -12 -64 -21 -105 -16 -75
-21 -96 -29 -136 -2 -12 -14 -54 -26 -94 -12 -40 -23 -80 -25 -89 -5 -24 -69
-208 -94 -271 -57 -143 -146 -327 -225 -464 -57 -98 -161 -261 -181 -282 -5
-6 -17 -22 -25 -34 -16 -24 -128 -168 -145 -187 -5 -6 -32 -37 -60 -69 -56
-65 -214 -225 -290 -294 -140 -127 -457 -359 -560 -410 -16 -8 -32 -17 -35
-20 -3 -3 -18 -12 -35 -21 -142 -77 -183 -97 -189 -92 -3 4 -6 2 -6 -3 0 -6
-19 -18 -42 -28 -24 -10 -62 -27 -86 -37 -24 -11 -60 -26 -80 -33 -20 -8 -46
-17 -57 -22 -11 -4 -22 -8 -25 -9 -3 -1 -18 -7 -35 -14 -29 -12 -240 -78 -280
-87 -43 -11 -50 -13 -52 -14 -3 -3 -2 -2 -58 -15 -22 -5 -42 -9 -45 -10 -3 -1
-25 -5 -50 -10 -25 -5 -47 -9 -50 -10 -3 -1 -32 -5 -65 -10 -33 -5 -62 -10
-65 -10 -3 -1 -32 -5 -65 -9 -33 -5 -73 -10 -90 -12 -160 -21 -566 -21 -725 1
-19 3 -55 7 -80 10 -46 5 -79 10 -140 21 -19 4 -44 8 -55 10 -11 1 -31 6 -45
9 -14 3 -36 7 -50 10 -56 8 -348 89 -410 112 -42 16 -175 60 -177 59 -1 -1 5
-24 13 -51 17 -55 18 -57 28 -100 4 -16 11 -39 16 -50 5 -11 14 -38 21 -60 7
-22 17 -44 21 -49 4 -6 8 -19 8 -31 0 -12 4 -25 8 -30 5 -6 17 -30 26 -55 44
-115 149 -327 222 -451 30 -50 54 -95 54 -99 0 -5 3 -10 8 -12 4 -2 34 -43 67
-93 33 -49 64 -95 70 -101 5 -6 19 -23 30 -39 23 -32 106 -138 115 -145 3 -3
20 -23 39 -45 105 -125 307 -318 456 -438 33 -26 68 -55 78 -62 44 -37 244
-169 352 -232 138 -82 332 -176 485 -237 129 -50 404 -134 490 -150 14 -2 36
-7 50 -10 24 -6 41 -9 105 -21 17 -3 46 -8 65 -11 36 -7 46 -8 140 -19 30 -3
75 -9 100 -12 109 -16 568 -8 720 12 19 2 58 7 85 11 28 3 84 12 125 20 41 8
86 17 100 19 99 14 390 103 565 171 180 71 564 271 613 321 7 7 18 13 23 13 6
0 16 6 23 13 8 6 24 19 36 27 95 63 275 208 379 305 120 112 272 271 326 343
6 7 17 21 26 30 101 109 329 465 420 657 19 39 37 73 42 76 4 3 9 16 10 27 1
12 4 22 8 22 6 0 14 20 24 55 1 6 12 32 24 57 11 26 21 49 21 52 0 2 5 17 12
33 6 15 12 33 14 38 2 6 15 44 29 85 15 41 28 82 30 90 2 8 16 56 30 105 15
50 28 99 30 110 2 11 15 79 30 150 14 72 28 153 31 180 3 28 7 66 10 85 14
112 18 199 18 410 0 217 -2 265 -19 420 -6 56 -40 264 -50 310 -4 14 -8 36
-11 50 -3 14 -11 46 -19 73 -8 26 -14 51 -15 55 -2 23 -61 222 -77 262 -3 8
-7 20 -8 25 -3 10 -15 41 -78 195 -34 83 -178 369 -206 409 -10 14 -21 33 -24
41 -12 26 -175 270 -187 280 -4 3 -40 48 -81 100 -41 52 -94 117 -119 145 -80
89 -273 276 -360 349 -47 39 -86 74 -88 79 -2 4 -8 7 -14 7 -6 0 -27 14 -47
30 -119 100 -330 230 -550 341 -86 43 -169 81 -185 85 -27 6 -29 5 -22 -17z"/>
</g>
</svg>
